<svg xmlns="http://www.w3.org/2000/svg" width="41.212" height="39.326" viewBox="0 0 41.212 39.326">
  <g id="Group_8" data-name="Group 8" transform="translate(0 0)">
    <path id="Path_8" data-name="Path 8" d="M-1566.1,1421.2q4.911-4.841,9.82-9.685c3.009-2.985,5.99-6,9-8.982,1.365-1.354,2.2-1.367,3.548-.026,2.312,2.306,4.59,4.645,7.149,7.24.054-.853.072-1.347.12-1.838a1.781,1.781,0,0,1,1.862-1.815,1.757,1.757,0,0,1,1.966,1.86c.054,1.5-.065,3.01.054,4.5a3.4,3.4,0,0,0,.8,1.935c1.909,2.032,3.926,3.962,5.89,5.944,1.18,1.19,1.321,2.332.436,3.206s-2.009.724-3.206-.471q-8.089-8.071-16.165-16.155c-.184-.184-.391-.344-.663-.581-.46.432-.892.815-1.3,1.222q-7.629,7.62-15.253,15.246c-1.709,1.708-2.2,1.743-4.053.328Z" transform="translate(1566.103 -1401.507)" fill="#207eaa"/>
    <path id="Path_9" data-name="Path 9" d="M-1517.55,1486.243c-6.186,0-12.082.009-17.979-.007a1.811,1.811,0,0,1-2-2.008c-.018-4.236-.027-8.473.019-12.709a2.2,2.2,0,0,1,.6-1.378q7.814-7.884,15.686-15.71a5.158,5.158,0,0,1,.616-.408c.734.79,1.467,1.631,2.253,2.42,4.467,4.482,8.965,8.932,13.394,13.452a3.327,3.327,0,0,1,.855,2.07c.081,3.913.046,7.828.036,11.743,0,1.987-.569,2.527-2.609,2.535-.911,0-1.822-.012-2.733-.03a1.573,1.573,0,0,1-.4-.166v-15.136h-7.748Zm-14.087-15.38v7.538h7.54v-7.538Z" transform="translate(1541.405 -1446.92)" fill="#207eaa"/>
  </g>
</svg>
