<svg id="Group_10" data-name="Group 10" xmlns="http://www.w3.org/2000/svg" width="40.84" height="39.326" viewBox="0 0 40.84 39.326">
  <path id="Path_11" data-name="Path 11" d="M-1718.263,880.189c6.1.151,11.653,1.971,16.048,6.567a14.25,14.25,0,0,1,.565,19.61c-4.625,5.41-10.638,7.72-17.662,7.5a4,4,0,0,0-3.091,1.053c-1.637,1.485-3.378,2.862-5.142,4.2a2.021,2.021,0,0,1-1.629.336c-.355-.129-.657-.886-.674-1.375-.072-2.007-.058-4.019-.008-6.027a1.706,1.706,0,0,0-.864-1.7,16.836,16.836,0,0,1-7.639-10.018c-1.422-5.561.277-10.282,4.307-14.182C-1729.7,881.94-1724.317,880.3-1718.263,880.189Zm-9.113,35.54c1.85-1.5,3.446-2.826,5.094-4.088a2.013,2.013,0,0,1,1.3-.349c6.192.588,11.732-.908,16.266-5.285,5.561-5.368,5.539-12.8.066-18.143-6.743-6.588-19.862-6.869-26.991-.578-4.549,4.014-5.863,9.288-3.579,14.368a15.089,15.089,0,0,0,6.827,7.156,1.684,1.684,0,0,1,1.043,1.809C-1727.44,912.212-1727.377,913.814-1727.377,915.729Z" transform="translate(1738.855 -880.189)" fill="#207eaa"/>
  <path id="Path_12" data-name="Path 12" d="M-1629.5,938.355a5.6,5.6,0,0,1,5.36-5.166c3.542-.189,5.714,1.249,6.324,4.245a4.914,4.914,0,0,1-1.085,4.247,14.885,14.885,0,0,1-1.8,1.847,4.03,4.03,0,0,0-1.666,3.508c.094,1.149-.729.947-1.393.981-.7.036-1.3.009-1.311-.974a5.077,5.077,0,0,1,1.677-4.28,14.545,14.545,0,0,0,2.421-2.59,2.952,2.952,0,0,0-.912-4.274,3.161,3.161,0,0,0-4.3,1.075c-.309.512-.46,1.415-.848,1.518A7.86,7.86,0,0,1-1629.5,938.355Z" transform="translate(1644.052 -926.123)" fill="#207eaa"/>
  <path id="Path_13" data-name="Path 13" d="M-1596.96,1060.728c.073-1.01.544-1.546,1.465-1.564a1.351,1.351,0,0,1,1.475,1.444,1.38,1.38,0,0,1-1.457,1.484A1.411,1.411,0,0,1-1596.96,1060.728Z" transform="translate(1615.84 -1035.349)" fill="#207eaa"/>
</svg>
