<svg id="Group_12" data-name="Group 12" xmlns="http://www.w3.org/2000/svg" width="41.414" height="39.327" viewBox="0 0 41.414 39.327">
  <path id="Path_18" data-name="Path 18" d="M-1971.506,1186.5c-.875,0-1.6.031-2.33-.007a2.136,2.136,0,0,1-2.063-2.1,2.14,2.14,0,0,1,2.14-2.131c.691-.022,1.384,0,2.164,0v-4.37c-1.755-.187-4.059.479-4.27-2.306-.111-1.471.892-1.927,4.262-2.177v-4.364c-.725,0-1.449.02-2.172,0a2.135,2.135,0,0,1-2.123-2.148,2.137,2.137,0,0,1,2.082-2.08c.725-.035,1.454-.007,2.189-.007a28.37,28.37,0,0,1,.353-3.785,6.317,6.317,0,0,1,6.192-4.992c8.065-.043,16.13-.056,24.194,0a6.4,6.4,0,0,1,6.386,6.485q.035,13.144,0,26.288a6.408,6.408,0,0,1-6.4,6.469q-12.1.084-24.194,0a6.48,6.48,0,0,1-6.4-6.6C-1971.51,1188.019-1971.506,1187.361-1971.506,1186.5Zm8.7-26.04v30.384c.4.02.743.051,1.083.051q10.173,0,20.346,0c1.762,0,2.592-.759,2.6-2.516q.029-12.731,0-25.461c0-1.756-.833-2.511-2.6-2.512q-10.173,0-20.346,0C-1962.061,1160.413-1962.4,1160.445-1962.8,1160.465Zm-2.278,12.942v-4.268h-2.037v4.268Zm-1.987,4.5v4.269h2.083c0-1.239,0-2.391,0-3.543,0-.222-.025-.445-.042-.726Zm2.084-13.16v-4.269c-2.047-.048-2.512,1.849-2.033,4.25.241.023.5.069.762.07C-1965.876,1164.8-1965.5,1164.768-1964.982,1164.746Zm-.051,21.767c-.441,0-.746-.009-1.051,0-.333.013-.666.046-.974.068-.423,2.93.2,4.213,2.025,4.223Z" transform="translate(1975.899 -1155.996)" fill="#207eaa"/>
  <path id="Path_19" data-name="Path 19" d="M-1886.88,1207.9a4.311,4.311,0,0,1,4.315,4.376,4.348,4.348,0,0,1-4.325,4.266,4.227,4.227,0,0,1-4.322-4.331A4.191,4.191,0,0,1-1886.88,1207.9Z" transform="translate(1910.917 -1195.823)" fill="#207eaa"/>
  <path id="Path_20" data-name="Path 20" d="M-1890.818,1258.041c-1.358-.224-2.745-.349-4.074-.7-1.423-.374-1.646-1.3-.63-2.383a5.935,5.935,0,0,1,5.216-1.633,12.114,12.114,0,0,1,3.982,1.293,2.42,2.42,0,0,1,.908,1.812c.018.3-.847.824-1.382.951C-1888.1,1257.691-1889.44,1257.827-1890.818,1258.041Z" transform="translate(1914.704 -1230.639)" fill="#207eaa"/>
</svg>
