<svg xmlns="http://www.w3.org/2000/svg" xmlns:xlink="http://www.w3.org/1999/xlink" width="44.412" height="44.405" viewBox="0 0 44.412 44.405">
  <defs>
    <linearGradient id="linear-gradient" x1="0.5" x2="0.5" y2="1" gradientUnits="objectBoundingBox">
      <stop offset="0" stop-color="#52b3e3"/>
      <stop offset="1" stop-color="#2f87b2"/>
    </linearGradient>
  </defs>
  <g id="Group_361" data-name="Group 361" transform="translate(-4552.385 -3479.466)">
    <g id="Group_359" data-name="Group 359">
      <path id="Path_395" data-name="Path 395" d="M2043.423,153.636h14.659a3.705,3.705,0,0,1,3.831,3.813q0,6.22-.007,12.439a.853.853,0,0,0,.444.821c1.148.744,1.373.711.805,2.2a.894.894,0,0,0-.026.089,1.378,1.378,0,0,0,.7,1.745.492.492,0,0,0,.441.015c.426-.134.858-.25,1.279-.4a.816.816,0,0,1,1.036.356,13.183,13.183,0,0,1,1.275,2.193.95.95,0,0,1-.328,1.369c-.322.244-.582.549-.881.815-.159.142-.147.289-.129.492.079.888.55,1.262,1.426,1.387,1.227.176,1.274.237,1.351,1.7a9.184,9.184,0,0,1-.068,1.936.837.837,0,0,1-.67.775c-.463.115-.924.244-1.394.327a.483.483,0,0,0-.433.4c-.323,1.126-.312,1.177.592,1.938.834.7.866.809.411,1.793a11.844,11.844,0,0,1-1.191,1.976.78.78,0,0,1-.971.312c-.377-.133-.773-.216-1.145-.363a.65.65,0,0,0-.854.2,3.819,3.819,0,0,1-.456.459.489.489,0,0,0-.133.582c.145.422.254.857.4,1.279a.818.818,0,0,1-.363,1.034,13.184,13.184,0,0,1-2.277,1.313.887.887,0,0,1-1.164-.235c-.125-.135-.228-.291-.353-.427-.721-.788-.72-.776-1.746-.533a.578.578,0,0,0-.527.529c-.072.455-.2.9-.316,1.348a.8.8,0,0,1-.747.64,10.943,10.943,0,0,1-2.761,0,.815.815,0,0,1-.771-.672c-.117-.478-.245-.955-.336-1.438a.411.411,0,0,0-.349-.368l-.045-.012c-1.112-.321-1.249-.275-1.991.668-.565.719-.817.768-1.652.363a15.289,15.289,0,0,1-1.99-1.17.83.83,0,0,1-.363-1.074c.123-.331.181-.689.322-1.011a.762.762,0,0,0-.248-1.009c-.355-.3-.6-.754-1.206-.451a7.661,7.661,0,0,1-1.1.339.738.738,0,0,1-.951-.344.784.784,0,0,0-.8-.405c-2.805.011-5.61.007-8.416.006a3.7,3.7,0,0,1-3.859-3.2c-.162-.878.138-1.238,1.033-1.239,1.064,0,2.127-.008,3.19,0a.482.482,0,0,0,.544-.366q1.043-2.915,2.121-5.818c.139-.374.056-.489-.343-.487-2.374.012-4.748.006-7.122.005a3.712,3.712,0,0,1-3.9-3.887q0-9.456,0-18.913a3.707,3.707,0,0,1,3.851-3.839Zm-5.175,9.62c-.039.74-.039.74-.806.74-2.051,0-4.1.013-6.151-.011-.4,0-.47.115-.467.486q.025,3.954,0,7.908c0,.388.067.511.491.509,4.671-.019,9.342-.012,14.013-.012.532,0,.532,0,.379-.506-.231-.762-.185-.893.471-1.344a16.234,16.234,0,0,1,2.08-1.194.834.834,0,0,1,1.118.2,4.211,4.211,0,0,1,.373.41,1.3,1.3,0,0,0,1.875.574.33.33,0,0,1,.09-.022.358.358,0,0,0,.315-.333c.1-.5.235-.987.345-1.483a.774.774,0,0,1,.76-.672,14.427,14.427,0,0,1,2.723,0,.81.81,0,0,1,.81.73c.1.482.232.957.328,1.439a.358.358,0,0,0,.275.314c1.145.388,1.144.392,1.975-.5.147-.158.286-.324.444-.471.11-.1.248-.26.368-.254.444.02.387-.258.387-.539q0-5.8,0-11.608a2.254,2.254,0,0,0-2.515-2.505H2037.16c-2.836,0-5.673,0-8.509,0a2.19,2.19,0,0,0-2.258,2.152c-.014,5.1,0,10.2-.014,15.307,0,.285.108.321.349.317.724-.013,1.45-.032,2.173.006.4.021.467-.116.466-.486q-.019-7.376-.008-14.752c0-.843.213-1.053,1.072-1.053h25.99c.824,0,1.046.219,1.046,1.034v8.232c0,1.1,0,1.091-1.1,1.1-.3,0-.388-.072-.384-.379.014-1.109,0-2.219-.008-3.328,0-1.618,0-3.236.023-4.854,0-.329-.15-.329-.391-.329q-12.184.005-24.369,0c-.312,0-.423.062-.417.4q.031,1.826,0,3.653c-.006.333.1.4.414.4,2.065-.014,4.131-.007,6.2-.007C2038.209,162.516,2038.209,162.516,2038.248,163.256Zm25.463,13.211a.885.885,0,0,1-.649-.309,12.287,12.287,0,0,0-1.468-1.47.779.779,0,0,1-.246-.915c.145-.438.27-.883.4-1.326.034-.114.137-.254.017-.343a5.393,5.393,0,0,0-1.234-.714c-.139-.055-.212.1-.293.182-.308.324-.617.647-.914.981a.859.859,0,0,1-1.037.258,9.633,9.633,0,0,0-1.827-.487.842.842,0,0,1-.765-.742c-.092-.468-.235-.926-.324-1.394-.049-.257-.208-.286-.4-.26-.431.058-.911-.2-1.289.182-.066.066-.062.2-.087.308q-.146.63-.29,1.26a.773.773,0,0,1-.658.63,12.846,12.846,0,0,0-2.005.534.764.764,0,0,1-.881-.227c-.134-.149-.275-.291-.413-.437-.862-.92-.862-.92-1.913-.208a.282.282,0,0,1-.038.026c-.194.089-.207.222-.142.417.156.467.28.944.429,1.413a.733.733,0,0,1-.229.836,15.8,15.8,0,0,0-1.535,1.535.7.7,0,0,1-.8.221c-.2-.067-.412-.124-.618-.187-1.2-.365-1.2-.363-1.763.786a.337.337,0,0,0,.076.478c.335.3.646.619.985.909a.9.9,0,0,1,.263,1.117,9.072,9.072,0,0,0-.472,1.783.832.832,0,0,1-.708.745q-.722.156-1.436.345c-.459.122-.256.517-.24.768.02.306-.253.724.229.92a1.773,1.773,0,0,0,.267.072c.42.1.84.193,1.26.293a.747.747,0,0,1,.608.623,13.369,13.369,0,0,0,.546,2.05.753.753,0,0,1-.208.846c-.158.147-.312.3-.47.445-.921.856-.917.853-.2,1.918a.33.33,0,0,0,.453.162c.45-.157.915-.27,1.368-.419a.778.778,0,0,1,.909.263,12.338,12.338,0,0,0,1.437,1.436.768.768,0,0,1,.263.909c-.067.188-.119.382-.177.573-.363,1.2-.36,1.192.8,1.757a.336.336,0,0,0,.474-.09c.308-.345.635-.673.942-1.018a.835.835,0,0,1,1-.245,10.59,10.59,0,0,0,1.872.5.825.825,0,0,1,.735.718c.091.453.206.9.319,1.348.029.111.007.287.16.305a5.967,5.967,0,0,0,1.429,0c.145-.019.125-.2.153-.311q.174-.694.329-1.393a.785.785,0,0,1,.686-.655,10.864,10.864,0,0,0,1.917-.508.836.836,0,0,1,1,.255c.308.345.634.673.942,1.018.146.164.291.219.475.074.354-.28.914-.3,1.064-.831.021-.075-.048-.175-.075-.263-.124-.413-.241-.828-.376-1.237a.751.751,0,0,1,.24-.874,14.19,14.19,0,0,0,1.5-1.5.717.717,0,0,1,.833-.231c.189.065.383.116.574.174,1.207.367,1.2.364,1.775-.757a.356.356,0,0,0-.08-.514c-.348-.3-.672-.635-1.017-.943a.835.835,0,0,1-.237-1,10.46,10.46,0,0,0,.5-1.872.8.8,0,0,1,.68-.715c.2-.039.391-.09.585-.137,1.222-.293,1.216-.293,1.132-1.563-.015-.225-.088-.325-.308-.37-.482-.1-.959-.225-1.439-.334a.768.768,0,0,1-.64-.647,12.649,12.649,0,0,0-.533-2.005.766.766,0,0,1,.215-.884c.16-.145.313-.3.47-.445.87-.818.861-.813.22-1.843a.391.391,0,0,0-.555-.2C2064.738,176.187,2064.2,176.323,2063.711,176.467Zm-21.01-2.11h-13.34c-.878,0-1.756.009-2.634-.006-.258,0-.35.066-.341.334.019.585,0,1.17.006,1.756a2.222,2.222,0,0,0,2.34,2.355q6.446.005,12.892,0c.107,0,.245.07.334-.088l-.573-.537a.853.853,0,0,1-.238-1.258A14.059,14.059,0,0,1,2042.7,174.357Zm-.232,12.559a4.7,4.7,0,0,1-.172-.645.6.6,0,0,0-.58-.581c-.438-.075-.868-.2-1.3-.3a.767.767,0,0,1-.651-.732,13.684,13.684,0,0,1-.012-2.767.822.822,0,0,1,.722-.824c.482-.1.955-.236,1.437-.335.2-.04.336-.125.31-.323s-.223-.1-.335-.1c-1.14-.009-2.281.009-3.421-.015a.518.518,0,0,0-.59.416c-.636,1.8-1.294,3.586-1.944,5.379-.3.831-.3.832.573.832Zm-1.24,1.5c-3.377,0-6.654,0-9.932,0-.355,0-.3.143-.175.35a2.234,2.234,0,0,0,2.03,1.135q3.9,0,7.8,0c.1,0,.211.039.324-.068C2041.062,189.4,2040.781,188.956,2041.229,188.417Zm2.442-14.04,0,.054a8.631,8.631,0,0,1,1,.311c.423.186.646,0,.87-.365Z" transform="translate(2527.473 3325.83)" fill="url(#linear-gradient)"/>
      <path id="Path_396" data-name="Path 396" d="M2103.882,237.807a5.189,5.189,0,1,1,5.2-5.154A5.2,5.2,0,0,1,2103.882,237.807Zm.039-8.889a3.7,3.7,0,1,0,3.674,3.737A3.713,3.713,0,0,0,2103.92,228.918Z" transform="translate(2478.091 3276.448)" fill="url(#linear-gradient)"/>
      <path id="Path_397" data-name="Path 397" d="M2110.111,217.122c.026.767-.017.881-1.086.81-.54-.036-.475-.791-.432-1.131.079-.633.764-.366,1.165-.41C2110.387,216.323,2109.933,216.928,2110.111,217.122Z" transform="translate(2471.493 3283.847)" fill="url(#linear-gradient)"/>
      <path id="Path_398" data-name="Path 398" d="M2136.523,232.868a.2.2,0,0,1-.142.223c-.087.029-.176.051-.264.077-1.073.317-1.064.315-1.375-.762-.064-.222.045-.282.194-.329.372-.119.745-.614,1.075-.361C2136.3,231.942,2136.361,232.473,2136.523,232.868Z" transform="translate(2453.988 3273.626)" fill="url(#linear-gradient)"/>
      <path id="Path_399" data-name="Path 399" d="M2115.471,265.867c0-.153.008-.307,0-.459-.012-.177.064-.239.236-.254a6.459,6.459,0,0,0,.816-.119c.174-.038.264,0,.292.173a.264.264,0,0,0,.014.044c.362,1.124.136,1.413-1.059,1.388-.205,0-.273-.083-.27-.269,0-.168,0-.336,0-.5Z" transform="translate(2466.874 3251.292)" fill="url(#linear-gradient)"/>
      <path id="Path_400" data-name="Path 400" d="M2090.475,250.385a3.764,3.764,0,0,1-.942.51c-.121.063-.286.232-.4.038a4.7,4.7,0,0,1-.464-1.2c-.028-.106.031-.175.135-.2a3.2,3.2,0,0,1,.4-.1c.281-.039.625-.333.815-.127A3.619,3.619,0,0,1,2090.475,250.385Z" transform="translate(2484.812 3261.862)" fill="url(#linear-gradient)"/>
      <path id="Path_401" data-name="Path 401" d="M2104.743,263.871l1,.323a.139.139,0,0,1,.093.181c-.085.373-.174.744-.26,1.116-.028.12-.112.132-.21.113s-.179-.04-.267-.064c-1.155-.321-1.229-.531-.564-1.553C2104.594,263.9,2104.632,263.831,2104.743,263.871Z" transform="translate(2474.469 3252.069)" fill="url(#linear-gradient)"/>
      <path id="Path_402" data-name="Path 402" d="M2119.425,218.288l.012-.065c.2-1.175.458-1.3,1.545-.753.184.092.222.179.125.349a1.81,1.81,0,0,0-.091.21c-.423.991-.42.986-1.426.553C2119.426,218.51,2119.385,218.422,2119.425,218.288Z" transform="translate(2464.235 3283.321)" fill="url(#linear-gradient)"/>
      <path id="Path_403" data-name="Path 403" d="M2099.826,221.01c-.024.183-.184.208-.292.278-.786.508-.767.488-1.377-.219-.294-.342-.221-.5.115-.726.889-.6.881-.612,1.393.348C2099.722,220.8,2099.775,220.909,2099.826,221.01Z" transform="translate(2478.582 3281.47)" fill="url(#linear-gradient)"/>
      <path id="Path_404" data-name="Path 404" d="M2133.7,255.085c-.327-.248-.7-.5-1.027-.8-.107-.1.084-.239.151-.348.491-.79.486-.771,1.34-.387.365.164.478.322.219.667-.166.22-.292.47-.442.7C2133.894,255,2133.859,255.1,2133.7,255.085Z" transform="translate(2455.382 3259.138)" fill="url(#linear-gradient)"/>
      <path id="Path_405" data-name="Path 405" d="M2092.38,228.485c-.2.328-.39.681-.622,1-.081.113-.226-.032-.33-.078-1.1-.488-1.088-.483-.437-1.5.185-.288.323-.355.588-.108a7.4,7.4,0,0,0,.63.465C2092.281,228.321,2092.37,228.366,2092.38,228.485Z" transform="translate(2483.552 3276.3)" fill="url(#linear-gradient)"/>
      <path id="Path_406" data-name="Path 406" d="M2138.07,243.509c-.054,1.145-.051,1.122-1.128.969-.4-.057-.468-.2-.407-.564.141-.844.126-.826,1.027-.868C2137.986,243.027,2138.187,243.123,2138.07,243.509Z" transform="translate(2452.788 3265.998)" fill="url(#linear-gradient)"/>
      <path id="Path_407" data-name="Path 407" d="M2096.585,259a9.246,9.246,0,0,0-.575.743c-.224.36-.409.368-.721.07-.786-.751-.79-.724-.009-1.435.265-.241.44-.321.678.012a3.354,3.354,0,0,0,.467.441C2096.478,258.876,2096.524,258.932,2096.585,259Z" transform="translate(2480.773 3255.881)" fill="url(#linear-gradient)"/>
      <path id="Path_408" data-name="Path 408" d="M2126.283,260.774c.122-.012.165.081.221.149.128.154.251.311.376.467.4.5.4.5-.146.871-.774.534-.751.52-1.227-.283-.233-.395-.248-.632.209-.827A3.556,3.556,0,0,0,2126.283,260.774Z" transform="translate(2460.262 3254.135)" fill="url(#linear-gradient)"/>
      <path id="Path_409" data-name="Path 409" d="M2130.5,223.421a2.943,2.943,0,0,0-.294.209c-.82.746-.815.742-1.594-.025-.14-.138-.166-.227-.031-.373.267-.291.463-.856.767-.851.4.007.675.519.99.83C2130.384,223.254,2130.415,223.308,2130.5,223.421Z" transform="translate(2458.156 3279.825)" fill="url(#linear-gradient)"/>
      <path id="Path_410" data-name="Path 410" d="M2088.236,240.081c-.76.007-.76.007-.682-.744.086-.84.086-.84.945-.676.608.116.607.116.537.74a.93.93,0,0,0-.016.23c.049.362-.1.505-.461.452A2.147,2.147,0,0,0,2088.236,240.081Z" transform="translate(2485.575 3268.988)" fill="url(#linear-gradient)"/>
      <path id="Path_411" data-name="Path 411" d="M2070.554,177.561h9.886c-.527-.527-.954-.976-1.406-1.4-.235-.218-.3-.35-.025-.611.775-.746.759-.758,1.522,0,.677.672,1.36,1.338,2.04,2.007.533.652.522.892-.069,1.485-.816.818-1.64,1.628-2.446,2.456-.2.205-.313.246-.539.017-.788-.8-.8-.786,0-1.579.279-.278.563-.552.932-.913h-.563q-4.274,0-8.55,0a2.236,2.236,0,0,0-2.438,2.44c0,1.279-.009,2.557.005,3.836,0,.285-.051.394-.37.393-1.116,0-1.116.01-1.116-1.12,0-1.078,0-2.157,0-3.235a3.684,3.684,0,0,1,3.017-3.724A.658.658,0,0,0,2070.554,177.561Z" transform="translate(2499.034 3311.54)" fill="url(#linear-gradient)"/>
      <path id="Path_412" data-name="Path 412" d="M2048.018,171.532c.744,0,.744,0,.744.886,0,.594,0,.594-.9.594-.583,0-.583,0-.583-.955C2047.282,171.532,2047.282,171.532,2048.018,171.532Z" transform="translate(2512.503 3313.854)" fill="url(#linear-gradient)"/>
      <path id="Path_413" data-name="Path 413" d="M2056.949,173.012c-.719,0-.719,0-.719-.911,0-.569,0-.569.923-.569.558,0,.558,0,.557.935C2057.71,173.012,2057.71,173.012,2056.949,173.012Z" transform="translate(2506.515 3313.854)" fill="url(#linear-gradient)"/>
      <path id="Path_414" data-name="Path 414" d="M2065.94,171.532c.717,0,.717,0,.717.866,0,.614,0,.614-.924.614-.556,0-.556,0-.556-.936C2065.178,171.532,2065.178,171.532,2065.94,171.532Z" transform="translate(2500.527 3313.854)" fill="url(#linear-gradient)"/>
    </g>
  </g>
</svg>
