<svg xmlns="http://www.w3.org/2000/svg" xmlns:xlink="http://www.w3.org/1999/xlink" width="54.307" height="41.009" viewBox="0 0 54.307 41.009">
  <defs>
    <linearGradient id="linear-gradient" x1="0.5" x2="0.5" y2="1" gradientUnits="objectBoundingBox">
      <stop offset="0" stop-color="#52b3e3"/>
      <stop offset="1" stop-color="#2f87b2"/>
    </linearGradient>
  </defs>
  <g id="Group_355" data-name="Group 355" transform="translate(-3838.835 -3479.604)">
    <g id="Group_262" data-name="Group 262" transform="translate(3838.836 3479.604)">
      <path id="Path_417" data-name="Path 417" d="M1559,465.23c.091-.045.072-.142.089-.214a3.967,3.967,0,0,1,3.958-3.15q8.852,0,17.7,0h.506a.488.488,0,0,0-.182-.239c-1.484-1.486-2.978-2.961-4.451-4.457a3.979,3.979,0,0,1,1.91-6.722,3.763,3.763,0,0,1,3.671,1.044q6.775,6.74,13.524,13.507a1.143,1.143,0,0,1,0,1.712q-6.738,6.738-13.483,13.468a3.983,3.983,0,1,1-5.642-5.623c1.177-1.191,2.366-2.369,3.553-3.55.371-.368.749-.728,1.124-1.092l-.03-.07h-18.04a3.986,3.986,0,0,1-4.142-3.23c-.012-.05,0-.112-.067-.135Z" transform="translate(-1559 -445.353)" fill="url(#linear-gradient)"/>
      <path id="Path_418" data-name="Path 418" d="M1642.133,476.31c-.289-.05-.58-.09-.866-.153a1.122,1.122,0,0,1-1.025-1.227c-.022-.769-.01-1.538-.013-2.307a.912.912,0,0,0-.683-.96,20.262,20.262,0,0,1-3.6-1.489,2.7,2.7,0,0,0-.282-.111c.017-.121.115-.179.187-.251q1.724-1.731,3.449-3.461a.27.27,0,0,1,.348-.066,11.341,11.341,0,0,0,12.871-17.972,11.2,11.2,0,0,0-9.356-3.809,10.484,10.484,0,0,0-3.468.82.283.283,0,0,1-.37-.073q-1.8-1.813-3.65-3.566c-.026-.024-.048-.052-.067-.074a24.053,24.053,0,0,1,3.954-1.65.9.9,0,0,0,.668-.968q0-.95,0-1.9c0-.1,0-.2,0-.3a1.232,1.232,0,0,1,1.233-1.369,1.853,1.853,0,0,0,.624-.11h3.8c.04.094.125.049.189.056a5.116,5.116,0,0,1,.827.141,1.061,1.061,0,0,1,.843.947,4.844,4.844,0,0,1,.039.567c.005.669.011,1.339,0,2.008a.9.9,0,0,0,.6.9,4.007,4.007,0,0,0,.385.129,19.792,19.792,0,0,1,3.193,1.341.951.951,0,0,0,1.317-.2l1.3-1.305c.862-.861,1.337-.891,2.287-.11a31.319,31.319,0,0,1,2.608,2.529,6.2,6.2,0,0,1,.929,1.163,1.081,1.081,0,0,1-.1,1.333c-.1.119-.2.234-.307.343-.472.474-.948.945-1.421,1.419a.922.922,0,0,0-.2,1.2,20.932,20.932,0,0,1,1.479,3.573.915.915,0,0,0,.956.687c.724,0,1.448-.007,2.171,0a1.24,1.24,0,0,1,1.416,1.241,2.337,2.337,0,0,0,.106.654v3.91a6.448,6.448,0,0,0-.187.856,1.076,1.076,0,0,1-.952.839,4.87,4.87,0,0,1-.54.039c-.679,0-1.358.008-2.037,0a.91.91,0,0,0-.891.586,3.884,3.884,0,0,0-.148.436,20.156,20.156,0,0,1-1.337,3.166.958.958,0,0,0,.2,1.316l1.287,1.286c.879.876.913,1.349.121,2.306a32.178,32.178,0,0,1-2.573,2.644,5.525,5.525,0,0,1-1.1.873,1.073,1.073,0,0,1-1.377-.111,4.572,4.572,0,0,1-.361-.328c-.462-.459-.92-.923-1.382-1.383a.913.913,0,0,0-1.183-.2,20.687,20.687,0,0,1-3.577,1.477.914.914,0,0,0-.691.979c0,.751.011,1.5-.01,2.253a1.168,1.168,0,0,1-1.071,1.281,5.582,5.582,0,0,0-.809.141,2.073,2.073,0,0,0-.268-.019C1644.467,476.355,1643.3,476.3,1642.133,476.31Z" transform="translate(-1610.212 -435.314)" fill="url(#linear-gradient)"/>
    </g>
  </g>
</svg>
