<svg xmlns="http://www.w3.org/2000/svg" xmlns:xlink="http://www.w3.org/1999/xlink" width="52.421" height="34.917" viewBox="0 0 52.421 34.917">
  <defs>
    <linearGradient id="linear-gradient" x1="0.5" x2="0.5" y2="1" gradientUnits="objectBoundingBox">
      <stop offset="0" stop-color="#52b3e3"/>
      <stop offset="1" stop-color="#2f87b2"/>
    </linearGradient>
  </defs>
  <g id="Group_356" data-name="Group 356" transform="translate(-4020.647 -3481.563)">
    <g id="Group_257" data-name="Group 257" transform="translate(4020.647 3481.563)">
      <path id="Path_377" data-name="Path 377" d="M1602.487-214.922a9.377,9.377,0,0,1,4.082,2.47,9.243,9.243,0,0,1,1.991,10.31,9.325,9.325,0,0,1-8.616,5.846q-16.838.029-33.675,0a9.461,9.461,0,0,1-9.321-8.47,9.432,9.432,0,0,1,7.478-10.276c.3-.064.5-.127.559-.524a10.073,10.073,0,0,1,11.165-8.691c.4.044.543-.136.724-.413a13.81,13.81,0,0,1,9.818-6.367,14.024,14.024,0,0,1,14.967,8.625A13.9,13.9,0,0,1,1602.487-214.922Zm-12.652,16.643c.146.015.252.035.358.035,3.15,0,6.3.008,9.448,0a7.627,7.627,0,0,0,4.027-1.1,7.569,7.569,0,0,0,3.574-7.592,7.537,7.537,0,0,0-5.814-6.228c-.921-.214-1.173-.587-.99-1.537a12.006,12.006,0,0,0-1.712-9.038,12.071,12.071,0,0,0-12.121-5.269,11.912,11.912,0,0,0-8.5,6.081c-.44.767-.7.873-1.567.721a8.718,8.718,0,0,0-1.524-.163,8.2,8.2,0,0,0-8.193,7.772c-.055.937-.335,1.233-1.259,1.328a7.513,7.513,0,0,0-6.453,9.313,7.557,7.557,0,0,0,7.594,5.709c3.918.022,7.837.006,11.756,0,.176,0,.351-.022.513-.033v-6.229c-1.01,0-1.982.038-2.946-.023a1.1,1.1,0,0,1-.808-.5c-.113-.245.062-.631.138-.948.023-.094.138-.167.211-.248q3.986-4.394,7.972-8.787c.671-.74,1.066-.743,1.749.009q3.122,3.434,6.239,6.874c.64.705,1.283,1.407,1.918,2.116.262.292.439.666.182.994a1.543,1.543,0,0,1-.835.493,5.776,5.776,0,0,1-1.2.022h-1.758Z" transform="translate(-1556.903 231.195)" fill="url(#linear-gradient)"/>
    </g>
  </g>
</svg>
