<svg xmlns="http://www.w3.org/2000/svg" xmlns:xlink="http://www.w3.org/1999/xlink" width="53.592" height="37.126" viewBox="0 0 53.592 37.126">
  <defs>
    <linearGradient id="linear-gradient" x1="0.5" x2="0.5" y2="1" gradientUnits="objectBoundingBox">
      <stop offset="0" stop-color="#52b3e3"/>
      <stop offset="1" stop-color="#2f87b2"/>
    </linearGradient>
  </defs>
  <g id="Group_362" data-name="Group 362" transform="translate(-4673.462 -3480.54)">
    <g id="Group_360" data-name="Group 360">
      <g id="Group_261" data-name="Group 261" transform="translate(4673.462 3480.54)">
        <path id="Path_415" data-name="Path 415" d="M1842.544,222.871c-3.307,6.661-6.642,13.308-9.9,19.991a4.849,4.849,0,0,1-4.808,2.977c-11.9-.029-23.8-.013-35.706-.015a8.324,8.324,0,0,1-.95-.037c-1.2-.138-1.677-.847-1.267-1.991a19.914,19.914,0,0,1,.962-2.038c2.925-5.929,5.874-11.846,8.767-17.79a4.876,4.876,0,0,1,4.8-3q17.853.038,35.706,0a2.482,2.482,0,0,1,2.4.944Z" transform="translate(-1788.951 -208.713)" fill="url(#linear-gradient)"/>
        <path id="Path_416" data-name="Path 416" d="M1787.493,193.994a3.377,3.377,0,0,1,3.476-1.9c3.448.077,6.9.024,10.551.024,0-.6-.023-1.14,0-1.675a3.66,3.66,0,0,1,3.541-3.624c2.3-.091,4.6-.093,6.9-.027a3.788,3.788,0,0,1,3.872,4.067c.007.355,0,.711,0,1.256h10.338c2.964,0,3.955,1.153,3.543,4.279h-1.371c-8.413,0-16.825.018-25.239-.009a7.463,7.463,0,0,0-7.3,4.519c-2.564,5.27-5.18,10.514-7.78,15.766-.155.313-.354.6-.533.906Zm16.608-1.978h9.1c.154-2.5-.071-2.745-2.4-2.746h-4.269C1804.278,189.271,1803.9,189.677,1804.1,192.016Z" transform="translate(-1787.493 -186.744)" fill="url(#linear-gradient)"/>
      </g>
    </g>
  </g>
</svg>
