<svg xmlns="http://www.w3.org/2000/svg" xmlns:xlink="http://www.w3.org/1999/xlink" width="44.21" height="56.165" viewBox="0 0 44.21 56.165">
  <defs>
    <linearGradient id="linear-gradient" x1="0.5" x2="0.5" y2="1" gradientUnits="objectBoundingBox">
      <stop offset="0" stop-color="#3f9cc9"/>
      <stop offset="1" stop-color="#358eba"/>
    </linearGradient>
  </defs>
  <g id="Group_365" data-name="Group 365" transform="translate(62.805 -0.558)">
    <g id="Group_363" data-name="Group 363">
      <path id="Path_529" data-name="Path 529" d="M-41.189,56.723a1.5,1.5,0,0,1-1.492-1.344,9.115,9.115,0,0,1-.013-1.778c-.889-7.43-13.9-14.28-19.172-16.407a1.5,1.5,0,0,1-.939-1.392V10.665a1.5,1.5,0,0,1,1.465-1.5C-51.259,8.931-41.971,1.173-41.7.941A1.539,1.539,0,0,1-39.708.9c.093.081,9.465,7.993,19.648,8.23a1.5,1.5,0,0,1,1.465,1.5V35.771a1.5,1.5,0,0,1-.959,1.4c-5.525,2.138-19.162,9.014-20.123,16.438a9.544,9.544,0,0,1-.021,1.771A1.5,1.5,0,0,1-41.189,56.723ZM-59.805,34.809c3.368,1.474,14.578,6.813,18.658,14.182,4.292-7.4,16.059-12.765,19.552-14.23V12.054c-8.762-.736-16.427-6.042-19.085-8.084C-43.3,5.989-51,11.345-59.805,12.086Z" fill="url(#linear-gradient)"/>
    </g>
    <g id="Group_364" data-name="Group 364">
      <path id="Path_530" data-name="Path 530" d="M-45.074,34.081a1.49,1.49,0,0,1-.438-.065,1.493,1.493,0,0,1-.913-.784l-3.695-7.674a1.5,1.5,0,0,1,.7-2,1.5,1.5,0,0,1,2,.7l2.989,6.21,14.8-8.654a1.5,1.5,0,0,1,2.052.538,1.5,1.5,0,0,1-.537,2.052l-16.2,9.474A1.5,1.5,0,0,1-45.074,34.081Z" fill="url(#linear-gradient)"/>
    </g>
  </g>
</svg>
