<svg xmlns="http://www.w3.org/2000/svg" xmlns:xlink="http://www.w3.org/1999/xlink" width="56.711" height="48.304" viewBox="0 0 56.711 48.304">
  <defs>
    <linearGradient id="linear-gradient" x1="0.5" x2="0.5" y2="1" gradientUnits="objectBoundingBox">
      <stop offset="0" stop-color="#52b3e3"/>
      <stop offset="1" stop-color="#2f87b2"/>
    </linearGradient>
  </defs>
  <g id="Group_357" data-name="Group 357" transform="translate(-4194.661 -3475.228)">
    <g id="Group_258" data-name="Group 258" transform="translate(4194.661 3475.228)">
      <path id="Path_378" data-name="Path 378" d="M1575.147,87.466a1.23,1.23,0,0,1,.814,1.437,1.2,1.2,0,0,1-2.318.047,1.255,1.255,0,0,1,.806-1.493,3.769,3.769,0,0,1-.168-.77c-.013-2.363-.017-4.725.006-7.088a1.214,1.214,0,0,1,.314-.754c.894-.938,1.829-1.836,2.735-2.761a.635.635,0,0,1,1.032-.055V55.866h20.061c.008.155.026.33.026.5q0,3.887,0,7.774c0,1.264.547,1.814,1.8,1.816h1.346v3.567a3.742,3.742,0,0,1-1.5-.913c-.519-.492-.759-.463-1.112.17a19.7,19.7,0,0,0-2.713,9.839c0,.058-.01.117-.018.2H1578.4V76.551c-.152.123-.243.184-.32.26-.832.828-1.672,1.649-2.481,2.5a1.075,1.075,0,0,0-.273.67c-.02,2.225-.007,4.451-.019,6.676A4.481,4.481,0,0,1,1575.147,87.466Zm19.787-20.66q0-3.108,0-6.216c0-.672-.12-.789-.8-.789q-4.159,0-8.318,0c-.6,0-.743.149-.743.764q0,6.284,0,12.569c0,.591.165.751.764.752q4.159,0,8.318,0c.637,0,.784-.146.784-.773Q1594.936,69.959,1594.935,66.806Z" transform="translate(-1562.247 -41.663)" fill="url(#linear-gradient)"/>
      <path id="Path_379" data-name="Path 379" d="M1651.03,42.516h7.908c.6,0,.738.13.739.715q0,6.354,0,12.708c0,.557-.143.706-.708.706q-7.931.006-15.862,0c-.569,0-.715-.145-.715-.7q0-6.354,0-12.708c0-.591.136-.72.733-.72Q1647.076,42.515,1651.03,42.516Zm-.012,4.55q2.7,0,5.39,0c.151,0,.346.035.444-.043.167-.134.37-.342.375-.523,0-.141-.26-.307-.429-.426-.072-.05-.208-.012-.314-.012h-10.872c-.121,0-.275-.041-.358.017-.169.117-.405.281-.416.44s.187.379.348.5c.116.083.322.052.489.052Q1648.346,47.069,1651.019,47.067Zm.06,3.018h5.344c.136,0,.314.044.4-.025.171-.134.407-.336.4-.5s-.265-.336-.443-.462c-.082-.058-.237-.015-.359-.015H1645.6c-.106,0-.244-.038-.314.014-.176.131-.439.3-.445.46s.23.369.4.5c.088.069.265.027.4.027Zm-.039,2.025h-5.526c-.481,0-.733.175-.7.507.038.417.337.489.69.489q5.526,0,11.052,0c.475,0,.73-.184.7-.517-.035-.423-.336-.479-.689-.478C1654.723,52.113,1652.882,52.11,1651.04,52.109Z" transform="translate(-1605.174 -33.332)" fill="url(#linear-gradient)"/>
      <path id="Path_380" data-name="Path 380" d="M1654.463,101.61a6.585,6.585,0,1,1-6.595,6.552A6.578,6.578,0,0,1,1654.463,101.61Zm-.008,9.727a3.145,3.145,0,1,0-3.151-3.13A3.152,3.152,0,0,0,1654.455,111.337Z" transform="translate(-1608.594 -70.208)" fill="url(#linear-gradient)"/>
      <path id="Path_381" data-name="Path 381" d="M1609.779,26.194a5.26,5.26,0,0,0-.94.26,1.486,1.486,0,0,0-.823,1.465c0,.945,0,1.89,0,2.835v.473h-.778c0-.2.008-.389,0-.58a26.617,26.617,0,0,0-.2-3.595,7.639,7.639,0,0,0-15.084.772c-.088.937-.045,1.887-.061,2.832,0,.18,0,.361,0,.569h-2.807a11.236,11.236,0,0,1,5.132-11.677,10.537,10.537,0,0,1,15.557,6.559A.377.377,0,0,1,1609.779,26.194Z" transform="translate(-1571.807 -18.09)" fill="url(#linear-gradient)"/>
      <path id="Path_382" data-name="Path 382" d="M1646.918,112.75a12.86,12.86,0,0,1-6.931-3.077,10.741,10.741,0,0,1-3.378-7.88,18.3,18.3,0,0,1,2.323-9.236.945.945,0,0,1,.106-.128,6.18,6.18,0,0,0,3.85,1.308,7.364,7.364,0,0,0,3.995-1.122v2.263c-.308.053-.636.1-.961.167a7.562,7.562,0,0,0,.619,14.932c.29.034.389.128.382.42C1646.906,111.157,1646.918,111.917,1646.918,112.75Z" transform="translate(-1601.562 -64.479)" fill="url(#linear-gradient)"/>
      <path id="Path_383" data-name="Path 383" d="M1666.747,92.57a7.114,7.114,0,0,0,7.971-.268c.507,1.273,1.073,2.5,1.49,3.782a14.684,14.684,0,0,1,.383,8.593c-1.091,3.967-3.8,6.336-7.658,7.5-.707.212-1.437.347-2.215.531,0-.9-.013-1.709.016-2.513,0-.1.22-.256.354-.274a7.439,7.439,0,0,0,5.554-3.525,7.562,7.562,0,0,0-5.461-11.513c-.135-.017-.27-.045-.434-.073Z" transform="translate(-1620.355 -64.4)" fill="url(#linear-gradient)"/>
      <path id="Path_384" data-name="Path 384" d="M1550.208,76.858l.654-.8c1.3,1.041,2.585,2.087,3.894,3.1a1.365,1.365,0,0,0,.773.27c2.239.021,4.477.012,6.716.012h.51v.988c-.132.01-.263.027-.394.027q-3.632,0-7.264,0a.96.96,0,0,1-.555-.134C1553.1,79.18,1551.663,78.024,1550.208,76.858Z" transform="translate(-1547.652 -54.26)" fill="url(#linear-gradient)"/>
      <path id="Path_385" data-name="Path 385" d="M1589.541,124.765c-1.735,0-3.47,0-5.2,0-.373,0-.7-.062-.7-.514s.33-.517.7-.517q5.227,0,10.454,0c.378,0,.7.083.7.52s-.325.515-.7.514C1593.041,124.76,1591.291,124.765,1589.541,124.765Z" transform="translate(-1568.513 -84.015)" fill="url(#linear-gradient)"/>
      <path id="Path_386" data-name="Path 386" d="M1566.285,66.53l.655-.8c1.2.961,2.414,1.9,3.589,2.888a1.723,1.723,0,0,0,1.4.487,7.125,7.125,0,0,1,.849-.006v1.038c-.621,0-1.227.007-1.831-.006a.6.6,0,0,1-.331-.135C1569.175,68.848,1567.741,67.7,1566.285,66.53Z" transform="translate(-1557.684 -47.816)" fill="url(#linear-gradient)"/>
      <path id="Path_387" data-name="Path 387" d="M1572.815,95.318v1.04c-.387,0-.762.016-1.135,0a1.236,1.236,0,0,0-.908.315c-1.256,1.032-2.531,2.04-3.811,3.065l-.646-.784c.1-.091.208-.192.32-.282,1.232-.991,2.473-1.972,3.695-2.977a1.449,1.449,0,0,1,1.076-.38C1571.858,95.341,1572.313,95.318,1572.815,95.318Z" transform="translate(-1557.703 -66.275)" fill="url(#linear-gradient)"/>
      <path id="Path_388" data-name="Path 388" d="M1560.686,108.854a1.184,1.184,0,0,1-1.184-1.188,1.164,1.164,0,0,1,1.211-1.2,1.2,1.2,0,0,1,1.175,1.2A1.216,1.216,0,0,1,1560.686,108.854Z" transform="translate(-1553.451 -73.24)" fill="url(#linear-gradient)"/>
      <path id="Path_389" data-name="Path 389" d="M1560.682,62.4a1.194,1.194,0,0,1-.01-2.387,1.194,1.194,0,1,1,.01,2.387Z" transform="translate(-1553.451 -44.248)" fill="url(#linear-gradient)"/>
      <path id="Path_390" data-name="Path 390" d="M1544.591,72.706a1.185,1.185,0,0,1-1.182-1.19,1.195,1.195,0,1,1,1.182,1.19Z" transform="translate(-1543.409 -50.678)" fill="url(#linear-gradient)"/>
      <path id="Path_391" data-name="Path 391" d="M1606.848,81.1v-12h7.806v12Zm2.366-4.061c0,.441-.006.883,0,1.325.01.525.17.684.682.688q.868.007,1.736,0c.483,0,.649-.17.654-.665.007-.792.014-1.584,0-2.375a1.1,1.1,0,0,1,.332-.882,2.479,2.479,0,0,0,.012-3.43,2.541,2.541,0,0,0-3.5-.239,2.434,2.434,0,0,0-.41,3.43,2.056,2.056,0,0,1,.5,1.6C1609.2,76.677,1609.214,76.86,1609.214,77.042Z" transform="translate(-1582.996 -49.922)" fill="url(#linear-gradient)"/>
      <path id="Path_392" data-name="Path 392" d="M1661.831,117.673a2.121,2.121,0,0,1-2.166-2.121,2.149,2.149,0,1,1,4.3-.032A2.118,2.118,0,0,1,1661.831,117.673Z" transform="translate(-1615.955 -77.551)" fill="url(#linear-gradient)"/>
      <path id="Path_393" data-name="Path 393" d="M1615.176,82.63h-1.065c0-.852-.013-1.684.006-2.515a.943.943,0,0,0-.417-.884,1.51,1.51,0,0,1-.172-2.285,1.56,1.56,0,0,1,2.276.044,1.516,1.516,0,0,1-.222,2.254.9.9,0,0,0-.412.839C1615.19,80.916,1615.176,81.75,1615.176,82.63Z" transform="translate(-1586.888 -54.523)" fill="url(#linear-gradient)"/>
    </g>
  </g>
</svg>
